#N canvas 240 206 983 540 12;
#X obj 357 118 tgl 30 0 on-off empty On/Off 0 -10 0 10 -262144 -1 -1
1 1;
#X obj 358 166 bng 30 250 50 0 clear-coll empty Reset 0 -10 0 10 -262144
-1 -1;
#X obj 529 236 s melody;
#X msg 529 159 4 7 7 12 8 5 16 55 37 22 17 13 15 28 41 42 34 20 6 1
6 17 18 6 5 12 3 1 1 3 2 3 4 6 9 10 9 8 8 8 8 8 12 7 6 10 16 16 15
1 6 4 14 2 18 8 9 16 19 11 11 3 4 3 1 2 12 11 9 3 4 5 2 1 3 6 11 12
13 17 16 19 21 24 26 27 21 22 31 34 17 21 25 16 27 28 4 3 7 8 7 6 5
5;
#X obj 103 167 hradio 30 1 0 8 octave empty Octave 0 -8 0 10 -262144
-1 -1 4;
#X obj 106 40 markov-1;
#X floatatom 106 119 5 0 0 0 - - -;
#X floatatom 159 119 5 -12 12 0 - - -;
#X text 107 101 BPM;
#X text 156 101 TRANSPOSE;
#X obj 295 118 bng 30 250 50 0 empty empty Melody 0 -10 0 10 -262144
-1 -1;
#X msg 26 67 120;
#X obj 26 25 loadbang;
#X msg 66 65 3;
#X connect 3 0 2 0;
#X connect 6 0 5 0;
#X connect 7 0 5 1;
#X connect 10 0 3 0;
#X connect 11 0 6 0;
#X connect 12 0 11 0;
#X connect 12 0 13 0;
#X connect 13 0 4 0;
#X coords 0 -1 1 1 300 100 2 100 100;
