#N canvas 46 74 1084 647 10;
#X obj 765 193 drip;
#X obj 765 217 % 12;
#X floatatom 775 240 5 0 0 0 - - -;
#X obj 765 268 t f f;
#X obj 792 297 pack f f;
#X msg 670 299 open;
#X msg 711 299 clear;
#X msg 792 324 merge \$1 \$2;
#X obj 371 161 list length;
#X floatatom 393 192 5 0 0 0 - - -;
#X obj 335 245 random;
#X obj 335 266 + 1;
#X obj 302 288 packel;
#X obj 302 140 t a b a, f 12;
#X obj 107 349 f, f 33;
#X obj 107 298 metro 500, f 16;
#X obj 115 373 s nextnote;
#X obj 314 90 r nextnote;
#X obj 107 570 print note;
#X floatatom 349 289 5 0 0 0 - - -;
#X floatatom 200 215 5 0 0 0 - - -;
#X obj 122 402 hradio 15 1 0 8 empty octave empty 0 -8 0 10 -262144
-1 -1 4;
#X obj 122 424 * 12;
#X obj 107 446 + 0;
#X obj 107 489 + 0;
#X text 250 402 OCTAVE;
#X text 157 468 TRANSPOSE;
#X obj 148 147 loadbang;
#X msg 148 170 120;
#X text 28 14 SIMPLE MARKOV MELODY ANALYSIS/GENERATION EXAMPLE;
#X obj 118 542 noteout 1, f 19;
#X floatatom 122 469 5 0 0 0 - - -;
#X obj 107 84 tgl 15 0 empty on-off empty 17 7 0 10 -262144 -1 -1 1
1;
#X obj 118 517 makenote 60 100 300;
#X text 335 63 INITIAL NOTE (it has to be present in the corpus!);
#X obj 119 327 bng 15 250 50 0 empty empty empty 17 7 0 10 -262144
-1 -1;
#X text 138 327 individual notes;
#X text 800 192 we serialise the list;
#X obj 749 393 print;
#X floatatom 246 300 5 0 0 0 - - -;
#X msg 200 233 60000 \$1;
#X obj 200 274 * 0.25;
#X obj 199 254 /;
#X text 742 139 MELODY INLET;
#X msg 302 65 4;
#X text 96 66 On/Off;
#X obj 765 166 r melody;
#X obj 677 251 r clear-coll;
#X obj 206 182 inlet;
#X text 206 166 BPM;
#X obj 360 425 inlet;
#X text 357 406 TRANSPOSE;
#X obj 302 115 coll chain;
#C restore;
#X obj 749 370 coll chain;
#C restore;
#X connect 0 0 1 0;
#X connect 1 0 2 0;
#X connect 1 0 3 0;
#X connect 3 0 4 1;
#X connect 3 1 4 0;
#X connect 4 0 7 0;
#X connect 5 0 53 0;
#X connect 6 0 53 0;
#X connect 7 0 53 0;
#X connect 8 0 9 0;
#X connect 8 0 10 1;
#X connect 10 0 11 0;
#X connect 11 0 12 1;
#X connect 11 0 19 0;
#X connect 12 0 14 1;
#X connect 13 0 12 0;
#X connect 13 1 10 0;
#X connect 13 2 8 0;
#X connect 14 0 16 0;
#X connect 14 0 23 0;
#X connect 15 0 14 0;
#X connect 17 0 52 0;
#X connect 20 0 40 0;
#X connect 21 0 22 0;
#X connect 22 0 23 1;
#X connect 23 0 24 0;
#X connect 24 0 18 0;
#X connect 24 0 33 0;
#X connect 27 0 28 0;
#X connect 28 0 20 0;
#X connect 31 0 24 1;
#X connect 32 0 15 0;
#X connect 33 0 30 0;
#X connect 33 1 30 1;
#X connect 35 0 14 0;
#X connect 40 0 42 0;
#X connect 41 0 15 1;
#X connect 41 0 39 0;
#X connect 42 0 41 0;
#X connect 44 0 52 0;
#X connect 46 0 0 0;
#X connect 47 0 6 0;
#X connect 48 0 20 0;
#X connect 50 0 31 0;
#X connect 52 0 13 0;
#X connect 53 0 38 0;
